<svg width="806" height="604" viewBox="0 0 806 604" fill="none" xmlns="http://www.w3.org/2000/svg">
<rect width="804.904" height="603.678" transform="translate(0.302734)" fill="white"/>
<path d="M526.031 300.697C526.031 335.386 478.488 363.533 419.832 363.533C361.177 363.533 313.633 335.425 313.633 300.697V234.531H526.031V300.697Z" fill="#422CBF" stroke="black" stroke-width="0.0704291" stroke-linecap="round"/>
<path d="M524.127 262.797C528.492 264.026 415.467 339.945 415.467 339.945L313.594 263.669L452.454 237.028C452.454 237.028 519.761 261.568 524.127 262.797Z" fill="#25166B" stroke="black" stroke-width="0.0704291" stroke-linecap="round"/>
<path d="M609.57 213.519L420.745 322.422L232 213.519V204.916L420.785 104.656L609.57 213.519Z" fill="white" stroke="black" stroke-width="0.0704291"/>
<path d="M609.57 204.917L420.745 313.819L232 204.917L420.785 96.0534L609.57 204.917Z" fill="#4B49F2" stroke="black" stroke-width="0.0704291"/>
<path d="M609.57 213.519L420.745 322.422V313.819L609.57 204.916V213.519Z" fill="#152A85" stroke="black" stroke-width="0.0704291"/>
<path d="M328.833 241.508L419.952 187.83C421.857 186.72 424.277 187.354 425.389 189.217C426.5 191.081 425.865 193.499 424 194.609L337.048 246.028C329.349 250.587 324.587 258.872 324.587 267.832V363.295C324.587 365.476 322.801 367.26 320.618 367.26H320.301C318.118 367.26 316.332 365.476 316.332 363.295V263.352C316.332 254.353 321.094 246.067 328.833 241.508Z" fill="#89E0FE" stroke="black" stroke-width="0.0704291" stroke-linecap="round"/>
<path d="M319.987 327.853C324.115 327.853 327.527 331.025 327.805 335.108L331.734 388.787C332.052 393.346 328.48 397.191 323.916 397.191H316.019C311.455 397.191 307.843 393.306 308.201 388.787L312.129 335.108C312.447 331.025 315.86 327.853 319.987 327.853Z" fill="url(#paint0_linear)" stroke="black" stroke-width="0.0704291" stroke-linecap="round"/>
<path d="M320.023 305.256C324.904 305.256 328.873 309.221 328.873 314.097C328.873 318.973 324.904 322.938 320.023 322.938C315.142 322.938 311.173 318.973 311.173 314.097C311.173 309.221 315.142 305.256 320.023 305.256Z" fill="#89E0FE" stroke="black" stroke-width="0.0704291" stroke-linecap="round"/>
<path d="M538.206 209.277C538.206 209.277 538.75 210.246 541.727 208.988C544.703 207.731 545.537 206.253 545.537 206.253C545.537 206.253 544.771 200.289 542.917 201.784C541.064 203.279 538.206 209.277 538.206 209.277Z" fill="#291D51" stroke="black" stroke-width="0.0301839" stroke-linecap="round"/>
<path d="M545.69 188.396C545.639 191.522 545.554 193.918 546.744 195.6C547.935 197.282 548.037 198.42 548.037 198.42C548.037 198.42 544.499 198.913 542.696 201.342C540.894 203.772 540.996 206.202 539.329 206.609C537.662 207.017 534.873 205.097 534.873 205.097C534.873 205.097 536.642 205.029 537.322 202.821C538.019 200.612 539.788 195.888 539.856 194.648C539.924 193.408 539.856 188.6 539.856 188.6L545.69 188.396Z" fill="#2D2979" stroke="black" stroke-width="0.0301839" stroke-linecap="round"/>
<path d="M545.724 196.415C544.193 196.517 541.829 198.233 541.03 200.017C540.247 201.801 538.938 204.299 537.934 204.859C536.931 205.42 535.162 204.605 533.648 204.588C532.134 204.571 531.063 205.284 530.978 206.372C530.978 206.372 535.825 208.665 537.271 209.345C538.717 210.024 539.941 210.058 541.081 207.034C542.22 204.01 542.645 202.328 543.564 204.367C544.465 206.423 544.84 211.027 544.84 211.027C544.84 211.027 546.081 211.486 546.676 210.262C546.676 210.262 546.642 208.088 546.898 206.236C547.153 204.384 548.836 202.056 548.717 199.83C548.598 197.621 547.391 196.313 545.724 196.415Z" fill="#2D2979" stroke="black" stroke-width="0.0301839" stroke-linecap="round"/>
<path d="M547.561 168.823C549.619 172.17 547.136 181.294 546.166 194.461C546.166 194.461 543.241 196.704 539.873 194.971C539.873 194.971 537.033 167.532 536.54 162.519" fill="#E94372"/>
<path d="M547.561 168.823C549.619 172.17 547.136 181.294 546.166 194.461C546.166 194.461 543.241 196.704 539.873 194.971C539.873 194.971 537.033 167.532 536.54 162.519" stroke="black" stroke-width="0.0301839" stroke-linecap="round"/>
<path d="M553.82 201.92C553.82 201.92 554.364 202.889 557.34 201.631C560.317 200.374 561.15 198.896 561.15 198.896C561.15 198.896 560.385 192.932 558.531 194.428C556.677 195.923 553.82 201.92 553.82 201.92Z" fill="#291D51" stroke="black" stroke-width="0.0301839" stroke-linecap="round"/>
<path d="M561.286 181.039C561.235 184.165 561.15 186.561 562.341 188.243C563.531 189.925 563.633 191.063 563.633 191.063C563.633 191.063 560.096 191.556 558.293 193.986C556.49 196.415 556.592 198.845 554.925 199.253C553.258 199.66 550.469 197.74 550.469 197.74C550.469 197.74 552.238 197.672 552.918 195.464C553.616 193.255 555.384 188.532 555.452 187.291C555.521 186.051 555.452 181.243 555.452 181.243L561.286 181.039Z" fill="#2D2979" stroke="black" stroke-width="0.0301839" stroke-linecap="round"/>
<path d="M561.32 189.059C559.79 189.161 557.426 190.877 556.643 192.661C555.861 194.445 554.551 196.942 553.548 197.503C552.544 198.064 550.775 197.248 549.262 197.231C547.748 197.214 546.676 197.928 546.591 199.015C546.591 199.015 551.439 201.309 552.884 201.988C554.33 202.668 555.555 202.702 556.694 199.678C557.834 196.67 558.259 194.971 559.177 197.01C560.079 199.066 560.453 203.67 560.453 203.67C560.453 203.67 561.695 204.129 562.29 202.906C562.29 202.906 562.256 200.731 562.511 198.879C562.766 197.027 564.45 194.7 564.331 192.474C564.212 190.265 562.987 188.94 561.32 189.059Z" fill="#2D2979" stroke="black" stroke-width="0.0301839" stroke-linecap="round"/>
<path d="M553.82 154.534L561.422 155.197C561.422 155.197 563.191 158.866 563.157 160.701C565.3 166.274 561.439 180.665 561.814 187.189C561.814 187.189 558.344 189.041 555.487 187.274C555.487 187.274 552.493 159.308 551.983 154.296L553.82 154.534Z" fill="#D83068" stroke="black" stroke-width="0.0301839" stroke-linecap="round"/>
<path d="M576.815 227.083C577.427 227.083 577.937 226.573 577.937 225.962V183.91C577.937 183.299 577.427 182.789 576.815 182.789C576.203 182.789 575.692 183.299 575.692 183.91V225.979C575.692 226.59 576.186 227.083 576.815 227.083Z" fill="#223477" stroke="black" stroke-width="0.0301839" stroke-linecap="round"/>
<path d="M549.466 211.316C549.976 211.316 550.435 210.976 550.555 210.467L559.705 173.665C559.858 173.071 559.484 172.459 558.889 172.306C558.293 172.153 557.681 172.527 557.528 173.122L548.378 209.923C548.224 210.518 548.599 211.129 549.194 211.282C549.279 211.316 549.381 211.316 549.466 211.316Z" fill="#223477" stroke="black" stroke-width="0.0301839" stroke-linecap="round"/>
<path d="M604.164 211.316C604.249 211.316 604.351 211.299 604.436 211.282C605.031 211.129 605.406 210.518 605.253 209.923L596.102 173.139C595.949 172.544 595.354 172.17 594.741 172.323C594.146 172.476 593.772 173.088 593.925 173.682L603.076 210.484C603.195 210.976 603.654 211.316 604.164 211.316Z" fill="#223477" stroke="black" stroke-width="0.0301839" stroke-linecap="round"/>
<path d="M546.183 176.775C542.969 174.923 542.969 171.898 546.183 170.046L561.865 161.007C565.079 159.155 570.301 159.155 573.532 161.007L595.048 173.41C595.048 173.41 580.744 186.408 574.502 187.937C568.243 189.466 558.633 183.961 558.633 183.961L546.183 176.775Z" fill="#FDB724" stroke="black" stroke-width="0.0301839" stroke-linecap="round"/>
<path d="M561.644 147.33C565.249 148.639 588.414 157.796 588.414 157.796C588.414 157.796 587.445 175.093 582.24 172.289L558.344 157.796L551.983 154.313C551.405 148.656 557.681 145.886 561.644 147.33Z" fill="#D83068" stroke="black" stroke-width="0.0301839" stroke-linecap="round"/>
<path d="M536.523 162.518C535.961 156.877 542.237 154.091 546.2 155.535C549.823 156.86 572.971 166.001 572.971 166.001L596.732 163.792C598.602 172.372 591.901 176.892 585.149 179.865C578.397 182.838 572.019 183.297 566.797 180.511L542.901 166.001L545.979 163.418C545.979 163.418 547.612 167.003 547.561 168.821" fill="#E94372"/>
<path d="M536.523 162.518C535.961 156.877 542.237 154.091 546.2 155.535C549.823 156.86 572.971 166.001 572.971 166.001L596.732 163.792C598.602 172.372 591.901 176.892 585.149 179.865C578.397 182.838 572.019 183.297 566.797 180.511L542.901 166.001L545.979 163.418C545.979 163.418 547.612 167.003 547.561 168.821" stroke="black" stroke-width="0.0301839" stroke-linecap="round"/>
<path d="M531.93 151.833C531.93 152.495 532.287 153.09 532.849 153.43L550.112 163.386C550.673 163.709 551.388 163.709 551.949 163.386L576.151 149.437C576.73 149.114 577.07 148.502 577.07 147.84V147.704L531.93 151.833Z" fill="#C8E2FF" stroke="black" stroke-width="0.0301839" stroke-linecap="round"/>
<path d="M554.959 160.872L573.379 150.287C573.498 150.219 573.617 150.253 573.617 150.355C573.617 150.474 573.515 150.627 573.396 150.695L554.959 161.28C554.823 161.348 554.721 161.314 554.721 161.212C554.721 161.11 554.823 160.957 554.959 160.872Z" fill="#A5CBFA" stroke="black" stroke-width="0.0301839" stroke-linecap="round"/>
<path d="M532.849 153.43L550.112 163.386C550.401 163.556 550.707 163.624 551.03 163.641V151.85H531.93C531.93 152.478 532.27 153.09 532.849 153.43Z" fill="#A5CBFA" stroke="black" stroke-width="0.0301839" stroke-linecap="round"/>
<path d="M549.585 163.08L550.112 163.386C550.673 163.709 551.388 163.709 551.949 163.386L552.476 163.08V161.908H549.585V163.08Z" fill="#B7D6FD" stroke="black" stroke-width="0.0301839" stroke-linecap="round"/>
<path d="M550.384 162.467C550.792 162.705 551.286 162.705 551.677 162.467L576.832 147.957C577.155 147.77 577.155 147.464 576.832 147.294L558.31 136.607L531.93 151.814L550.384 162.467Z" fill="#EFF6FE" stroke="black" stroke-width="0.0301839" stroke-linecap="round"/>
<path d="M534.992 152.087L534.346 151.713C534.244 151.645 534.244 151.543 534.346 151.493L557.766 137.985C557.868 137.917 558.055 137.917 558.157 137.985L558.803 138.359C558.905 138.427 558.905 138.529 558.803 138.58L535.383 152.087C535.264 152.155 535.094 152.155 534.992 152.087Z" fill="#D2EAFF" stroke="black" stroke-width="0.0301839" stroke-linecap="round"/>
<path d="M566.491 151.833L566.372 151.901L558.31 156.556L553.888 154.007L553.752 153.922L561.95 149.199L566.491 151.833Z" fill="#97C3F4" stroke="black" stroke-width="0.0301839"/>
<path d="M566.372 151.901L558.31 156.556L553.888 154.007L561.95 149.352L566.372 151.901Z" fill="#D2EAFF" stroke="black" stroke-width="0.0301839"/>
<path d="M561.286 149.726C562.426 150.355 562.902 153.464 557.987 156.369L558.293 156.556L566.355 151.901L561.933 149.352L561.286 149.726Z" fill="#AAD1FC" stroke="black" stroke-width="0.0301839" stroke-linecap="round"/>
<path d="M568.056 144.136L544.805 157.524C544.703 157.592 544.516 157.592 544.414 157.524L536.165 152.767H536.148C536.046 152.699 536.046 152.614 536.148 152.546L559.381 139.141C559.483 139.073 559.654 139.073 559.773 139.141L568.039 143.915C568.158 143.966 568.158 144.068 568.056 144.136Z" fill="#97C3F4" stroke="black" stroke-width="0.0301839" stroke-linecap="round"/>
<path d="M568.056 144.136L544.805 157.524C544.703 157.592 544.516 157.592 544.414 157.524L536.165 152.767L559.398 139.362C559.5 139.294 559.671 139.294 559.79 139.362L568.056 144.136Z" fill="#AAD1FC" stroke="black" stroke-width="0.0301839" stroke-linecap="round"/>
<path d="M531.93 151.833L558.31 136.609V115.881L558.106 115.422L557.885 115.32C557.323 114.998 556.626 114.998 556.065 115.32L531.93 129.236C531.369 129.558 531.029 130.153 531.029 130.816V150.253C531.182 151.255 531.369 151.51 531.93 151.833Z" fill="#A5CBFA" stroke="black" stroke-width="0.0301839" stroke-linecap="round"/>
<path d="M534.346 131.75L558.31 116.578V115.881L558.106 115.422L557.885 115.32C557.324 114.998 556.626 114.998 556.065 115.32L531.93 129.236C531.624 129.406 531.403 129.66 531.233 129.949L534.346 131.75Z" fill="#C8E2FF" stroke="black" stroke-width="0.0301839" stroke-linecap="round"/>
<path d="M531.012 131.767L532.577 132.667L534.532 130.034L532.526 128.878L531.879 129.252C531.335 129.575 531.012 130.17 531.012 130.798V131.767Z" fill="#B7D6FD" stroke="black" stroke-width="0.0301839" stroke-linecap="round"/>
<path d="M557.698 115.42L532.372 130.032C532.1 130.185 531.93 130.474 531.93 130.797V151.831L558.31 136.607V115.777C558.31 115.471 557.97 115.267 557.698 115.42Z" fill="#DCEEFF" stroke="black" stroke-width="0.0301839" stroke-linecap="round"/>
<path d="M557.698 115.42L532.372 130.032C532.1 130.185 531.93 130.474 531.93 130.797V151.831L558.31 136.607V115.777C558.31 115.471 557.97 115.267 557.698 115.42Z" fill="#DCEEFF" stroke="black" stroke-width="0.0301839" stroke-linecap="round"/>
<path opacity="0.2" d="M557.697 115.42L554.755 117.119L553.837 117.646C553.837 122.845 553.36 136.149 532.236 148.501V151.661L558.31 136.607V115.777C558.31 115.471 557.97 115.267 557.697 115.42Z" fill="#94C3FB" stroke="black" stroke-width="0.0301839" stroke-linecap="round"/>
<path opacity="0.2" d="M531.93 151.833V151.085L558.31 135.862V136.609L531.93 151.833Z" fill="#94C3FB" stroke="black" stroke-width="0.0301839"/>
<path d="M557.613 135.505V116.509L557.306 116.696V135.352L557.613 135.505Z" fill="#1E3779" stroke="black" stroke-width="0.0301839"/>
<path d="M557.306 116.696V135.352L532.781 149.454V130.849L557.306 116.696Z" fill="#344593" stroke="black" stroke-width="0.0301839"/>
<path d="M557.613 135.505L532.781 149.828V149.454L557.306 135.352L557.613 135.505Z" fill="#031F60" stroke="black" stroke-width="0.0301839"/>
<path d="M557.307 116.696L553.837 118.701C553.718 124.427 552.085 136.677 532.781 148.18V149.454L557.307 135.352V116.696Z" fill="#2B3D89" stroke="black" stroke-width="0.0301839" stroke-linecap="round"/>
<path d="M583.295 100.912C583.295 100.912 579.587 96.24 572.92 98.9755C566.967 101.422 566.44 108.813 569.365 111.718C572.291 114.624 583.295 100.912 583.295 100.912Z" fill="#543354" stroke="black" stroke-width="0.0301839" stroke-linecap="round"/>
<path d="M569.535 108.762C570.079 103.699 573.532 99.7061 578.754 99.7741C584.298 99.8251 588.737 104.361 588.686 109.9C588.652 113.146 587.071 115.966 584.672 117.767C584.672 117.767 584.145 118.888 583.839 119.296C582.104 121.522 576.491 123.476 575.131 123.663C573.073 123.934 572.12 122.422 571.049 120.231C569.127 116.34 569.229 111.277 569.535 108.762Z" fill="#FFA8A7" stroke="black" stroke-width="0.0301839" stroke-linecap="round"/>
<path d="M576.934 122.269C576.934 122.269 577.767 124.019 578.328 126.194C578.584 127.162 577.767 127.434 575.93 128.827C574.093 130.204 579.23 132.209 582.393 131.665C585.574 131.121 588.993 128.861 589.775 126.704C590.659 124.291 590.03 123.968 588.193 124.07C585.421 124.223 585.302 124.58 584.877 123.238C584.724 122.762 583.856 119.313 583.856 119.313L576.934 122.269Z" fill="#FFA8A7" stroke="black" stroke-width="0.0301839" stroke-linecap="round"/>
<path d="M585.795 118.005C588.091 115.49 588.669 113.145 588.686 109.9C588.737 104.361 584.298 99.825 578.754 99.7741C575.165 99.7401 572.41 101.609 570.862 104.446C570.862 104.446 571.304 105.16 571.916 105.653C571.916 105.653 571.593 106.961 572.478 107.794C573.124 108.388 573.379 109.289 573.328 110.155C573.277 111.107 573.277 112.262 573.464 113.281C573.736 114.709 575.165 115.235 575.165 115.235C575.165 115.235 575.148 113.01 575.59 111.752C576.032 110.495 578.294 110.104 579.213 111.701C580.131 113.315 579.91 115.167 579.281 116.289C578.635 117.427 577.682 117.58 577.121 117.07C576.73 117.444 576.9 119.789 579.128 120.197C581.356 120.604 583.329 119.857 584.383 119.177C585.013 118.786 585.795 118.005 585.795 118.005Z" fill="#543354" stroke="black" stroke-width="0.0301839" stroke-linecap="round"/>
<path d="M583.295 100.912C583.295 100.912 584.758 100.403 586.407 101.796C588.057 103.189 590.03 107.811 591.289 112.891C592.564 117.954 588.244 121.641 582.734 123.323C576.866 125.124 573.787 122.116 573.787 122.116C573.787 122.116 574.978 122.558 576.101 120.825C576.798 119.738 576.968 117.529 576.968 117.529C576.968 117.529 579.723 118.277 581.866 115.286C583.992 112.313 583.295 100.912 583.295 100.912Z" fill="#543354" stroke="black" stroke-width="0.0301839" stroke-linecap="round"/>
<path d="M585.811 124.155C586.525 125.056 586.899 126.364 584.892 127.214C581.439 128.675 578.14 127.112 578.14 127.112C578.14 127.112 575.027 128.743 572.459 130.51C566.217 134.842 564.737 141.927 571.03 144.51C571.422 147.33 573.224 151.085 573.344 152.733C573.003 157.762 571.558 159.223 570.418 170.641C572.935 173.563 578.922 175.143 584.365 173.563C591.321 171.524 595.029 166.41 596.866 164.134C595.845 157.117 591.746 152.614 591.797 150.592C591.967 142.93 594.621 138.172 593.906 131.087C593.498 127.027 592.001 125.056 589.841 123.968C588.566 123.561 586.593 124.104 585.811 124.155Z" fill="#F5FBFB" stroke="black" stroke-width="0.0301839" stroke-linecap="round"/>
<path d="M585.268 123.815C585.268 123.815 585.506 123.628 587.632 123.374C589.741 123.119 592.667 123.832 594.112 128.743C595.558 133.636 593.959 137.696 593.568 141.332C593.177 144.968 594.18 149.012 594.18 149.012C594.18 149.012 592.99 151.017 588.704 153.243C582.513 156.437 571.866 155.248 569.297 153.565C569.297 153.565 568.515 142.284 569.774 135.777C571.032 129.269 578.363 126.619 578.363 126.619C578.363 126.619 580.999 127.638 583.788 126.534C586.561 125.429 585.268 123.815 585.268 123.815Z" fill="#C4D9FF" stroke="black" stroke-width="0.0301839" stroke-linecap="round"/>
<path d="M584.979 123.682C584.775 124.225 584.247 124.718 582.836 125.228C580.948 125.907 578.72 125.228 577.971 125.007C577.223 124.786 576.203 125.551 575.845 126.417C575.471 127.267 575.046 128.575 575.046 128.575C575.046 128.575 576.101 127.759 578.618 128.201C581.135 128.626 583.227 128.881 585.183 127.47C586.68 126.4 587.02 125.228 587.139 124.463C587.173 124.242 586.833 123.851 586.663 123.699C586.152 123.24 585.251 122.577 584.741 122.866L584.979 123.682Z" fill="#AACAF9" stroke="black" stroke-width="0.0301839" stroke-linecap="round"/>
<path d="M531.607 149.658C532.73 150.286 533.937 150.405 535.468 151.408C536.812 152.291 537.696 152.835 539.125 153.294C540.553 153.752 543.139 153.701 547.34 152.444C552.306 150.966 556.575 149.199 560.368 146.039C565.181 142.063 570.369 134.842 572.189 132.48C574.366 129.643 576.628 129.235 578.414 130.102C579.944 130.849 581.101 132.09 578.278 136.116C575.505 140.075 569.807 146.905 564.365 150.813C561.729 152.716 557.375 155.265 550.996 157.184C546.54 158.527 543.751 158.85 539.635 159.308C538.376 159.461 537.475 159.461 535.077 159.903C532.679 160.345 529.821 160.277 527.899 159.597C525.977 158.9 525.399 158.357 525.382 157.915C525.348 157.354 525.841 157.133 526.743 157.354C527.661 157.575 529.124 158.085 531.131 157.915C531.131 157.915 529.107 157.541 527.933 157.218C526.743 156.896 525.654 156.386 524.923 155.944C524.022 155.383 523.936 153.82 524.855 154.007C525.79 154.194 526.437 154.602 528.206 155.061C529.804 155.485 531.063 155.468 531.063 155.468C531.063 155.468 529.175 154.874 527.695 154.058C526.216 153.26 525.773 152.614 525.501 152.189C525.229 151.748 525.467 150.847 526.573 151.238C527.576 151.595 528.682 152.461 530.706 152.835C532.168 153.107 533.24 153.107 533.087 152.852C532.934 152.597 532.066 152.495 531.046 151.697C530.076 150.932 529.566 149.607 530.042 149.097C530.519 148.587 530.485 149.029 531.607 149.658Z" fill="#FFA8A7" stroke="black" stroke-width="0.0301839" stroke-linecap="round"/>
<path d="M578.771 129.947C580.115 130.932 581.05 132.547 579.4 135.639C577.733 138.731 572.767 144.304 570.369 146.615C567.971 148.925 567.103 149.588 567.103 149.588C567.103 149.588 563.566 147.923 562.086 144.151C562.086 144.151 563.651 142.639 565.726 140.141C567.801 137.661 571.73 131.884 573.873 130.202C576.101 128.418 577.784 129.233 578.771 129.947Z" fill="#AACAF9" stroke="black" stroke-width="0.0301839" stroke-linecap="round"/>
<path d="M562.919 143.287C562.919 143.287 562.63 142.947 562.239 143.354C561.848 143.762 560.759 144.833 560.368 145.223C559.977 145.614 560.096 147.466 561.491 149.216C562.885 150.966 564.671 152.139 565.147 151.833C565.623 151.527 567.494 149.862 567.749 149.641C567.988 149.42 567.835 148.961 567.835 148.961L567.29 149.42C567.29 149.42 565.504 148.723 564.11 146.939C562.715 145.155 562.545 143.66 562.545 143.66L562.919 143.287Z" fill="#C4D9FF" stroke="black" stroke-width="0.0301839" stroke-linecap="round"/>
<path d="M558.616 183.944C559.092 184.216 562.97 186.459 567.699 189.161C572.733 192.083 581.169 191.913 586.527 188.821L594.418 184.25C599.81 181.158 605.185 173.733 606.46 167.685L611.869 142.318C613.144 136.235 609.811 133.806 604.402 136.796L595.711 141.638C590.302 144.663 584.843 152.02 583.533 158.068L579.179 178.202C577.852 184.25 572.716 188.005 567.682 186.544L558.616 183.944ZM603.008 151C603.059 151.272 603.025 151.561 602.991 151.901L602.242 156.369L590.37 163.233C590.49 162.673 590.575 162.044 590.677 161.398C591.085 158.935 594.027 155.435 597.225 153.583L599.776 152.121C601.052 151.374 602.14 151.017 603.008 151Z" fill="#FFDB4C" stroke="black" stroke-width="0.0301839" stroke-linecap="round"/>
<path d="M589.945 165.833L604.147 157.626L604.895 153.158C605.151 151.663 604.385 150.898 603.007 150.983C603.059 151.255 603.024 151.544 602.99 151.884L602.242 156.352L590.37 163.216C590.115 164.762 589.945 165.833 589.945 165.833Z" fill="#FDB724" stroke="black" stroke-width="0.0301839" stroke-linecap="round"/>
<path d="M576.815 206.234L600.167 192.778C600.711 192.472 600.881 191.793 600.575 191.249C600.269 190.722 599.572 190.535 599.045 190.841L576.815 203.652L554.602 190.841C554.075 190.535 553.378 190.722 553.071 191.249C552.765 191.793 552.952 192.472 553.48 192.778L576.815 206.234Z" fill="#FFDB4C" stroke="black" stroke-width="0.0301839" stroke-linecap="round"/>
<path d="M576.815 206.234L600.167 192.778C600.711 192.472 600.881 191.793 600.575 191.249C600.269 190.722 599.572 190.535 599.045 190.841L576.815 203.652L554.602 190.841C554.075 190.535 553.378 190.722 553.071 191.249C552.765 191.793 552.952 192.472 553.48 192.778L576.815 206.234Z" fill="#223477" stroke="black" stroke-width="0.0301839" stroke-linecap="round"/>
<path d="M286.763 296.262C286.565 296.092 286.366 295.923 286.168 295.753C284.439 294.28 282.469 292.878 280.286 291.576C259.394 279.088 225.52 279.088 204.614 291.576C199.852 294.422 196.181 297.678 193.601 301.133C193.459 301.317 193.332 301.487 193.204 301.671C190.355 305.664 188.952 309.926 188.952 314.187C188.952 318.93 190.71 323.688 194.225 328.049C194.409 328.289 194.607 328.516 194.806 328.742C196.861 331.149 199.469 333.429 202.601 335.51C203.253 335.935 203.919 336.36 204.614 336.784C225.52 349.272 259.38 349.272 280.286 336.784C280.952 336.388 281.604 335.977 282.228 335.567C283.673 334.604 285.006 333.613 286.225 332.579C286.409 332.424 286.593 332.268 286.777 332.112C292.9 326.718 295.962 320.46 295.962 314.187C295.948 307.915 292.886 301.657 286.763 296.262Z" fill="#333333" stroke="black" stroke-width="0.0251533" stroke-linecap="round"/>
<path d="M280.286 288.829C259.394 276.341 225.52 276.341 204.628 288.829C194.168 295.073 188.952 303.257 188.952 311.44V314.187C188.952 306.003 194.182 297.82 204.614 291.576C225.52 279.088 259.38 279.088 280.272 291.576C290.718 297.82 295.948 306.003 295.948 314.187V311.44C295.948 303.257 290.718 295.073 280.286 288.829Z" fill="#E6E6E6" stroke="black" stroke-width="0.0251533" stroke-linecap="round"/>
<path d="M288.379 295.823L197.371 296.461C197.371 296.461 197.357 338.356 197.343 338.781C197.329 339.39 197.371 339.998 197.499 340.607V340.621C198.279 344.6 201.992 348.494 208.668 351.694C209.22 351.963 209.787 352.217 210.383 352.472C228.27 360.146 257.538 360.146 275.411 352.472C275.977 352.232 280.754 349.711 280.91 349.612C285.219 346.865 287.671 343.779 288.294 340.621C288.408 340.013 288.464 339.404 288.45 338.781C288.408 338.37 288.379 295.823 288.379 295.823Z" fill="#B3B3B3" stroke="black" stroke-width="0.0251533" stroke-linecap="round"/>
<path d="M280.286 283.265C280.116 283.137 279.946 283.024 279.776 282.911C278.288 281.891 276.615 280.914 274.758 280.008C257.084 271.4 228.695 271.4 211.006 280.008C202.105 284.355 197.541 290.061 197.385 295.838C197.244 301.246 200.985 306.697 208.696 311.044C209.249 311.355 209.815 311.653 210.397 311.964C228.269 321.012 257.495 321.012 275.368 311.964C275.935 311.681 280.711 308.708 280.853 308.595C285.998 304.743 288.492 300.283 288.379 295.838C288.251 291.406 285.544 287.017 280.286 283.265Z" fill="#F2F2F2" stroke="black" stroke-width="0.0251533" stroke-linecap="round"/>
<path d="M242.882 322.527C220.333 322.527 200.603 314.23 197.542 303.002C197.556 303.398 197.598 303.78 197.669 304.177C199.583 315.83 219.766 324.565 242.882 324.565C265.999 324.565 286.168 315.83 288.096 304.177C288.167 303.78 288.209 303.384 288.223 303.002C285.162 314.23 265.418 322.527 242.882 322.527Z" fill="white" stroke="black" stroke-width="0.0251533" stroke-linecap="round"/>
<path d="M242.882 322.527C220.332 322.527 200.475 313.409 197.385 302.11C197.4 302.506 197.442 302.903 197.513 303.299C199.441 315.023 219.68 323.801 242.868 323.801C266.056 323.801 286.296 315.008 288.223 303.299C288.294 302.903 288.337 302.506 288.351 302.11C285.289 313.423 265.418 322.527 242.882 322.527Z" fill="#333333" stroke="black" stroke-width="0.0251533" stroke-linecap="round"/>
<path d="M242.882 328.473C220.347 328.473 200.66 320.558 197.641 309.869C197.655 310.237 197.697 310.619 197.768 310.987C199.639 322.073 219.78 330.413 242.882 330.413C265.985 330.413 286.126 322.073 287.997 310.987C288.053 310.605 288.096 310.237 288.124 309.869C285.105 320.558 265.404 328.473 242.882 328.473Z" fill="white" stroke="black" stroke-width="0.0251533" stroke-linecap="round"/>
<path d="M242.882 328.473C220.347 328.473 200.532 319.78 197.499 309.033C197.513 309.416 197.556 309.784 197.626 310.166C199.512 321.323 219.709 329.705 242.882 329.705C266.056 329.705 286.253 321.323 288.138 310.166C288.209 309.784 288.252 309.416 288.266 309.033C285.233 319.78 265.404 328.473 242.882 328.473Z" fill="#333333" stroke="black" stroke-width="0.0251533" stroke-linecap="round"/>
<path d="M222.643 220.825C222.643 220.825 222.983 224.087 222.643 225.786C222.302 227.485 226.226 230.815 226.226 230.815L226.588 220.825H222.643Z" fill="#DB807F" stroke="black" stroke-width="0.0402452" stroke-linecap="round"/>
<path d="M258.7 167.271C258.042 164.417 257.906 161.88 255.82 161.245C253.733 160.611 250.15 157.032 249.606 157.938C249.062 158.844 247.792 161.517 251.284 163.828C252.463 164.779 251.874 168.857 254.436 169.854C258.7 167.271 258.7 167.271 258.7 167.271Z" fill="#DB807F" stroke="black" stroke-width="0.0402452" stroke-linecap="round"/>
<path d="M224.706 182.087C224.706 182.087 221.078 182.812 218.697 201.818C218.22 208.615 222.166 220.485 222.166 220.485C223.731 221.912 226.906 220.961 227.359 219.738C227.813 218.514 224.706 182.087 224.706 182.087Z" fill="#DFE1EE" stroke="black" stroke-width="0.0402452" stroke-linecap="round"/>
<path d="M234.027 284.981C234.027 284.981 235.138 285.026 236.544 284.935C237.95 284.845 239.583 286.113 237.632 289.693C236.181 291.777 233.755 291.867 233.165 292.728C232.575 293.589 231.487 297.214 227.178 296.761C224.774 296.262 224.094 294.223 225.137 291.324C226.18 288.424 225.727 285.932 225.727 285.932L234.027 284.981Z" fill="#402312" stroke="black" stroke-width="0.0402452" stroke-linecap="round"/>
<path d="M225.613 221.822C225.613 221.822 224.275 233.194 229.423 249.89C228.335 260.356 225.16 281.265 225.114 285.343C226.566 287.246 230.784 287.88 233.777 286.249C235.365 277.777 240.422 251.883 241.306 242.482L239.129 230.611L225.613 221.822Z" fill="#37475D" stroke="black" stroke-width="0.0402452" stroke-linecap="round"/>
<path d="M241.76 297.418C241.76 297.418 241.442 300.657 241.079 301.948C240.716 303.262 239.084 309.696 243.619 309.877C248.155 310.059 250.695 308.427 253.371 308.427C256.046 308.427 262.623 308.79 263.213 304.078C263.439 300.997 259.584 300.544 257.589 300.589C255.593 300.635 251.216 301.337 250.196 297.644C241.76 297.418 241.76 297.418 241.76 297.418Z" fill="#402312" stroke="black" stroke-width="0.0402452" stroke-linecap="round"/>
<path d="M225.613 221.822C225.613 221.822 223.935 231.019 229.695 236.728C231.623 238.631 234.39 240.33 238.494 241.485C240.399 251 241.669 256.822 241.805 261.443C241.941 266.065 240.921 296.897 240.921 296.897C240.921 296.897 245.343 300.363 250.922 297.304C251.942 281.152 256.478 243.501 251.647 226.874C225.613 221.822 225.613 221.822 225.613 221.822Z" fill="#303E52" stroke="black" stroke-width="0.0402452" stroke-linecap="round"/>
<path d="M244.73 189.064C244.73 189.064 247.27 190.627 247.792 190.423C248.313 190.22 260.967 185.122 260.423 183.899C259.879 182.676 253.484 171.326 253.484 171.326C254.708 168.54 258.042 167.045 259.947 167.158C263.303 172.119 271.104 183.876 271.059 186.097C271.059 189.563 261.421 195.543 252.35 200.21C252.94 210.631 258.382 228.187 246.408 229.275C234.435 230.362 233.097 224.382 230.103 223.702C227.11 223.022 224.116 223.022 224.797 216.77C225.477 210.517 224.865 202.249 224.048 198.919C223.232 195.589 221.304 182.88 225.817 181.407C229.037 180.365 239.152 188.181 244.73 189.064Z" fill="#F4F5F5" stroke="black" stroke-width="0.0402452" stroke-linecap="round"/>
<path d="M249.198 201.886L252.373 200.187C252.871 209 256.84 222.909 250.808 227.666C251.329 218.469 249.198 201.886 249.198 201.886Z" fill="#DFE1EE" stroke="black" stroke-width="0.0402452" stroke-linecap="round"/>
<path d="M242.553 165.301C242.553 165.301 244.617 167.543 245.819 171.259C247.18 174.453 250.74 180.977 242.803 182.812C242.191 183.016 241.896 185.938 241.896 185.938C241.896 185.938 237.156 186.845 235.206 184.285C235.319 182.404 235.319 182.404 235.319 182.404L232.031 173.275L242.553 165.301Z" fill="#DB807F" stroke="black" stroke-width="0.0402452" stroke-linecap="round"/>
<path d="M242.009 176.333C242.009 176.333 239.673 172.98 237.587 174.747C236.158 175.993 237.927 177.421 238.97 177.738C239.061 179.595 238.97 182.314 235.614 182.495C232.349 181.861 227.246 178.938 227.428 173.909C226.248 170.171 227.927 166.343 234.934 162.899C237.338 162.084 238.698 160.158 240.853 160.996C243.937 162.492 243.098 166.184 240.014 169.016C238.109 170.941 242.417 174.408 242.667 175.2C242.009 176.333 242.009 176.333 242.009 176.333Z" fill="#452B26" stroke="black" stroke-width="0.0402452" stroke-linecap="round"/>
<path d="M244.731 189.064C244.731 189.064 245.139 185.168 241.17 185.53C238.925 185.734 236.249 185.44 235.206 183.899C234.322 183.446 233.46 184.375 233.483 185.734C233.505 187.093 235.456 188.815 239.538 188.815C242.282 188.679 244.232 188.815 244.731 189.064Z" fill="#DFE1EE" stroke="black" stroke-width="0.0402452" stroke-linecap="round"/>
<path d="M253.371 308.428C250.695 308.428 248.155 310.059 243.619 309.878C241.828 309.81 240.989 308.745 240.671 307.408C241.941 308.881 247.338 308.609 249.198 307.952C251.057 307.295 253.053 307.204 256.818 307.114C260.582 307.023 263.213 304.078 263.213 304.078C262.6 308.79 256.047 308.428 253.371 308.428Z" fill="#9F6F57" stroke="black" stroke-width="0.0402452" stroke-linecap="round"/>
<path d="M224.797 294.699C228.766 297.372 231.169 294.473 231.6 293.567C232.031 292.66 232.077 291.981 235.297 290.44C238.517 288.9 238.358 285.932 238.358 285.932C238.698 286.68 238.608 287.903 237.633 289.693C236.181 291.777 233.755 291.868 233.165 292.728C232.575 293.589 231.487 297.214 227.178 296.761C225.886 296.489 225.092 295.764 224.797 294.699Z" fill="#9F6F57" stroke="black" stroke-width="0.0402452" stroke-linecap="round"/>
<path d="M435.341 202.373C425.544 208.218 409.319 208.218 399.522 202.373C398.825 201.949 398.161 201.507 397.566 201.048C397.549 201.031 397.549 201.031 397.549 201.031C390.337 195.441 391.188 187.235 399.828 182.257L411.121 175.749C413.145 174.594 415.373 174.033 417.636 174.067C419.745 174.101 421.854 174.662 423.741 175.766L435.018 182.274C444.372 187.66 444.593 196.834 435.341 202.373Z" fill="#96C7FB" stroke="black" stroke-width="0.0301839" stroke-linecap="round"/>
<path d="M435.341 202.373C425.544 208.218 409.319 208.218 399.522 202.373C398.824 201.949 398.161 201.507 397.566 201.048C397.549 201.031 397.549 201.031 397.549 201.031C416.139 210.155 431.123 195.424 428.453 187.983C425.765 180.541 418.129 177.839 418.129 177.839L417.636 174.068C419.745 174.102 421.854 174.662 423.741 175.767L435.018 182.274C444.372 187.66 444.593 196.835 435.341 202.373Z" fill="#83B5E2" stroke="black" stroke-width="0.0301839" stroke-linecap="round"/>
<path d="M375.728 152.796C374.979 152.796 374.231 152.507 373.653 151.946C372.513 150.808 372.513 148.939 373.653 147.8L457.044 64.5475C458.183 63.4092 460.037 63.4092 461.194 64.5475C462.333 65.6859 462.333 67.5548 461.194 68.6932L377.803 151.929C377.224 152.507 376.476 152.796 375.728 152.796Z" fill="#96C7FB" stroke="black" stroke-width="0.0301839" stroke-linecap="round"/>
<path d="M412.091 148.667C409.149 150.366 409.149 153.118 412.091 154.817C415.033 156.516 419.813 156.516 422.755 154.817C425.698 153.118 425.698 150.366 422.755 148.667C419.796 146.968 415.033 146.968 412.091 148.667Z" fill="#DDA74C" stroke="black" stroke-width="0.0301839" stroke-linecap="round"/>
<path d="M421.19 179.3C421.19 182.359 413.656 182.359 413.656 179.3V163.346H421.19V179.3Z" fill="#73A3DC" stroke="black" stroke-width="0.0301839" stroke-linecap="round"/>
<path d="M465.326 108.252C465.326 134.672 443.879 156.097 417.414 156.097C401.121 156.097 386.698 147.959 378.057 135.539C372.666 127.791 369.502 118.395 369.502 108.252C369.502 81.8321 390.95 60.3902 417.414 60.3902C427.568 60.3902 437.008 63.5504 444.764 68.9534C457.18 77.6015 465.326 91.9754 465.326 108.252Z" fill="#395297" stroke="black" stroke-width="0.0301839" stroke-linecap="round"/>
<path d="M427.279 68.2005C425.238 67.4189 422.33 67.0961 423.758 69.016C425.187 70.9189 426.344 71.5136 425.765 73.0257C425.187 74.5209 423.571 75.7102 423.622 76.9675C423.673 78.2248 423.98 79.7709 424.898 79.7369C425.816 79.686 428.878 78.1738 430.051 78.7685C431.225 79.3631 435.256 81.1981 436.396 80.0767C437.535 78.9724 438.096 79.3122 439.678 78.2078C441.26 77.1034 442.008 75.0986 440.818 74.6058C439.627 74.1131 439.253 74.5719 437.297 73.6204C435.341 72.6689 434.95 70.9699 432.841 70.5281C430.749 70.0864 428.793 68.7781 427.279 68.2005Z" fill="#13B0BF" stroke="black" stroke-width="0.0301839" stroke-linecap="round"/>
<path d="M419.506 65.7028C416.7 66.0086 411.104 65.9237 409.097 64.4115C408.111 63.647 406.954 62.6785 405.645 61.846C394.572 64.6494 384.691 71.3606 378.04 80.9092C378.142 82.2854 378.398 83.6277 378.806 84.817C379.741 87.5864 381.459 88.5719 383.517 89.8971C385.575 91.2224 384.384 92.1908 384.946 93.9408C385.524 95.6909 385.677 96.6423 386.647 97.8486C387.616 99.055 385.388 99.7006 384.316 100.941C383.245 102.181 382.786 102.929 382.65 106.259C382.497 109.589 384.538 113.157 384.963 114.635C385.388 116.113 383.364 116.827 382.803 119.358C382.241 121.873 379.588 128.126 380.456 132.56C381.306 137.011 382.837 137.13 383.619 134.684C384.384 132.22 384.521 129.655 386.63 128.431C388.722 127.191 391.341 128.788 393.603 125.9C395.865 123.011 396.409 123.402 398.382 122.892C400.338 122.383 400.049 121.159 402.464 119.189C404.879 117.218 406.257 115.009 404.59 113.14C402.923 111.271 401.495 110.812 400.695 107.635C399.896 104.458 398.059 100.958 396.035 98.5282C394.011 96.0986 389.215 96.1666 387.769 95.0282C386.323 93.8899 386.527 90.3729 387.123 89.2005C387.718 88.0452 386.613 87.2466 385.32 87.0597C384.027 86.8728 383.67 85.8704 383.976 84.1544C384.282 82.4553 387.531 81.4359 389.589 82.0815C391.63 82.7272 392.344 84.0694 391.715 86.8049C391.086 89.5403 392.276 91.4772 393.926 92.6666C395.576 93.8559 395.202 91.4942 394.419 89.6593C393.637 87.8413 394.028 86.618 396.154 84.1374C398.28 81.6568 400.61 82.8461 403.485 80.9092C406.342 78.9723 405.9 81.1131 407.601 82.0985C409.318 83.084 409.437 81.9966 410.764 80.6204C412.108 79.2442 413.843 81.5888 416.275 80.9942C418.707 80.4165 415.594 76.7296 416.581 75.0135C417.567 73.2975 419.353 74.0961 419.438 70.9698C419.523 67.8436 420.952 68.3023 422.075 67.5718C423.18 66.8921 422.313 65.397 419.506 65.7028ZM414.149 71.2757C413.009 72.38 412.601 71.9213 411.019 72.9917C409.437 74.0791 407.584 74.266 406.529 73.9941C405.492 73.7223 404.556 71.2927 404.913 70.1713C405.27 69.0499 406.971 69.3557 408.842 69.8315C410.713 70.3072 412.55 70.1543 414.676 69.5256C416.377 69.0499 415.288 70.1713 414.149 71.2757Z" fill="#13B0BF" stroke="black" stroke-width="0.0301839" stroke-linecap="round"/>
<path d="M463.099 122.604L463.065 122.74C462.231 122.757 461.347 123.011 460.598 123.776C458.591 125.849 458.847 124.694 455.802 125.424C452.758 126.155 453.132 127.837 452.588 129.587C452.043 131.337 448.523 132.135 446.924 132.203C445.325 132.271 443.182 135.873 442.876 137.912C442.57 139.951 440.018 139.832 437.978 140.987C435.92 142.143 433.998 144.691 432.552 145.694C431.106 146.713 429.133 146.866 427.637 145.949C426.123 145.014 425.698 141.735 425.749 139.05C425.8 136.366 426.531 133.681 428.062 131.337C429.575 129.009 429.269 129.247 430.256 125.05C431.242 120.854 428.912 118.56 427.535 117.558C426.157 116.555 423.265 116.436 422.228 115.094C421.19 113.752 421.054 112.358 421.667 108.281C422.279 104.186 424.456 104.084 426.701 102.657C428.946 101.23 432.637 100.244 435.46 100.567C438.284 100.89 439.763 102.249 441.022 103.659C442.264 105.07 442.298 107.091 443.369 107.669C444.424 108.23 445.614 108.043 446.652 108.689C447.672 109.351 448.199 110.184 449.373 110.439C450.53 110.693 450.342 109.164 450.461 108.417C450.581 107.669 449.526 107.448 448.233 106.922C446.941 106.395 446.754 105.902 446.635 104.849C446.516 103.795 445.461 104.254 444.985 103.659C444.509 103.048 443.981 104.696 443.675 105.29C443.369 105.885 443.335 104.611 443.335 104.611C443.335 104.611 442.468 105.24 442.383 104.764C442.315 104.288 443.216 103.557 443.522 102.589C443.828 101.621 442.366 101.281 441.787 100.193C441.226 99.123 440.053 98.5283 438.726 98.4604C437.399 98.3754 437.297 98.0016 436.362 98.8341C435.426 99.6667 432.603 99.3439 431.838 98.8851C431.089 98.4264 432.314 97.0162 433.589 95.8438C434.865 94.6545 436.107 95.7249 437.569 94.6205C439.049 93.5162 437.909 92.8195 437.178 92.2589C436.464 91.6982 436.515 90.8147 438.114 89.2855C439.712 87.7734 440.648 88.7249 440.784 89.7783C440.903 90.8317 441.77 91.6642 442.859 92.1229C443.947 92.5817 443.998 91.6982 444.628 90.0841C445.24 88.47 446.329 87.9093 448.029 87.8923C449.73 87.8583 452.553 87.8414 453.829 87.3486C455.105 86.8389 456.533 88.0792 457.027 89.3705C457.537 90.6448 459.306 91.7831 461.211 92.9215C461.755 93.2443 462.299 93.2103 462.843 93.0234C465.939 102.266 466.262 112.562 463.099 122.604Z" fill="#13B0BF" stroke="black" stroke-width="0.0301839" stroke-linecap="round"/>
<path d="M446.022 141.123C445.019 140.512 444.968 140.902 443.981 141.497C443.012 142.092 441.685 142.686 441.498 143.638C441.311 144.589 440.954 145.711 441.974 145.354C442.995 144.997 443.046 144.114 444.304 144.063C445.563 144.029 447.519 142.058 446.022 141.123Z" fill="#13B0BF" stroke="black" stroke-width="0.0301839" stroke-linecap="round"/>
<path d="M380.881 144.742C401.07 164.91 433.793 164.91 453.965 144.742C474.154 124.574 474.154 91.8849 453.965 71.7343L457.299 68.4041C480.532 91.613 482.743 127.055 459.51 150.281C436.26 173.507 400.815 171.264 377.581 148.055L380.881 144.742Z" fill="#96C7FB" stroke="black" stroke-width="0.0301839" stroke-linecap="round"/>
<path opacity="0.2" d="M453.301 96.2176C453.301 122.655 431.854 144.08 405.389 144.08C395.236 144.08 385.813 140.919 378.057 135.516C372.666 127.769 369.502 118.373 369.502 108.23C369.502 81.8097 390.95 60.3679 417.414 60.3679C427.568 60.3679 437.008 63.5281 444.763 68.931C450.138 76.6956 453.301 86.0913 453.301 96.2176Z" fill="#BADBF8" stroke="black" stroke-width="0.0301839" stroke-linecap="round"/>
<path d="M265.012 451.872C265.012 450.619 264.57 449.661 263.685 448.998C262.801 448.32 261.209 447.612 258.91 446.875C256.611 446.124 254.791 445.387 253.45 444.665C249.795 442.69 247.967 440.029 247.967 436.684C247.967 434.945 248.453 433.397 249.426 432.041C250.414 430.671 251.821 429.602 253.649 428.836C255.491 428.069 257.554 427.686 259.839 427.686C262.138 427.686 264.186 428.106 265.985 428.946C267.783 429.772 269.175 430.943 270.163 432.461C271.165 433.979 271.666 435.704 271.666 437.634H265.034C265.034 436.161 264.57 435.018 263.641 434.208C262.713 433.382 261.408 432.97 259.728 432.97C258.107 432.97 256.847 433.316 255.948 434.009C255.049 434.687 254.599 435.586 254.599 436.706C254.599 437.752 255.122 438.629 256.169 439.337C257.23 440.044 258.785 440.707 260.834 441.326C264.607 442.461 267.355 443.869 269.08 445.549C270.804 447.229 271.666 449.322 271.666 451.827C271.666 454.613 270.612 456.801 268.505 458.393C266.397 459.97 263.56 460.759 259.993 460.759C257.517 460.759 255.262 460.309 253.229 459.41C251.195 458.496 249.64 457.251 248.564 455.674C247.503 454.097 246.972 452.269 246.972 450.191H253.627C253.627 453.743 255.749 455.519 259.993 455.519C261.57 455.519 262.801 455.202 263.685 454.569C264.57 453.92 265.012 453.021 265.012 451.872ZM282.499 460.317H276.088V436.396H282.499V460.317ZM275.712 430.206C275.712 429.248 276.029 428.46 276.662 427.841C277.311 427.222 278.188 426.912 279.293 426.912C280.384 426.912 281.253 427.222 281.902 427.841C282.55 428.46 282.875 429.248 282.875 430.206C282.875 431.179 282.543 431.975 281.88 432.594C281.231 433.213 280.369 433.522 279.293 433.522C278.217 433.522 277.348 433.213 276.684 432.594C276.036 431.975 275.712 431.179 275.712 430.206ZM300.737 453.706C300.737 452.925 300.347 452.314 299.566 451.872C298.799 451.415 297.561 451.009 295.852 450.656C290.163 449.462 287.318 447.045 287.318 443.404C287.318 441.282 288.195 439.514 289.949 438.099C291.717 436.669 294.024 435.954 296.869 435.954C299.905 435.954 302.329 436.669 304.142 438.099C305.969 439.528 306.883 441.385 306.883 443.67H300.494C300.494 442.756 300.199 442.004 299.61 441.415C299.02 440.811 298.099 440.508 296.846 440.508C295.771 440.508 294.938 440.752 294.348 441.238C293.759 441.724 293.464 442.343 293.464 443.095C293.464 443.802 293.796 444.377 294.459 444.819C295.137 445.247 296.272 445.623 297.863 445.947C299.455 446.256 300.796 446.61 301.887 447.008C305.262 448.246 306.949 450.39 306.949 453.441C306.949 455.622 306.014 457.391 304.142 458.747C302.27 460.088 299.853 460.759 296.891 460.759C294.886 460.759 293.103 460.405 291.541 459.698C289.993 458.975 288.777 457.995 287.893 456.757C287.009 455.505 286.566 454.156 286.566 452.712H292.624C292.683 453.846 293.103 454.716 293.884 455.32C294.665 455.925 295.712 456.227 297.023 456.227C298.247 456.227 299.168 455.998 299.787 455.541C300.42 455.07 300.737 454.458 300.737 453.706ZM318.733 430.516V436.396H322.823V441.083H318.733V453.021C318.733 453.905 318.902 454.539 319.241 454.922C319.58 455.306 320.229 455.497 321.187 455.497C321.894 455.497 322.52 455.446 323.066 455.342V460.184C321.813 460.567 320.523 460.759 319.197 460.759C314.717 460.759 312.432 458.496 312.344 453.972V441.083H308.851V436.396H312.344V430.516H318.733ZM337.391 460.759C333.884 460.759 331.024 459.683 328.814 457.531C326.618 455.379 325.52 452.513 325.52 448.931V448.312C325.52 445.91 325.984 443.766 326.912 441.879C327.841 439.978 329.153 438.519 330.848 437.502C332.557 436.47 334.503 435.954 336.684 435.954C339.956 435.954 342.528 436.986 344.399 439.049C346.286 441.113 347.229 444.038 347.229 447.826V450.435H331.997C332.203 451.997 332.822 453.25 333.854 454.193C334.901 455.136 336.22 455.608 337.811 455.608C340.273 455.608 342.196 454.716 343.581 452.933L346.721 456.448C345.763 457.804 344.466 458.865 342.83 459.631C341.194 460.383 339.381 460.759 337.391 460.759ZM336.662 441.127C335.394 441.127 334.363 441.555 333.567 442.41C332.786 443.264 332.284 444.488 332.063 446.079H340.951V445.571C340.921 444.156 340.538 443.065 339.801 442.299C339.064 441.518 338.018 441.127 336.662 441.127ZM356.868 436.396L357.067 439.071C358.762 436.993 361.054 435.954 363.942 435.954C367.023 435.954 369.137 437.17 370.287 439.602C371.967 437.17 374.362 435.954 377.472 435.954C380.066 435.954 381.997 436.713 383.264 438.231C384.532 439.735 385.165 442.004 385.165 445.04V460.317H378.754V445.062C378.754 443.707 378.489 442.719 377.958 442.1C377.428 441.466 376.492 441.149 375.151 441.149C373.235 441.149 371.908 442.063 371.171 443.891L371.193 460.317H364.804V445.085C364.804 443.699 364.532 442.697 363.986 442.078C363.441 441.459 362.513 441.149 361.201 441.149C359.388 441.149 358.076 441.901 357.266 443.404V460.317H350.877V436.396H356.868ZM408.842 460.317H402.21V428.128H408.842V460.317ZM420.471 436.396L420.67 439.16C422.379 437.023 424.671 435.954 427.545 435.954C430.08 435.954 431.967 436.699 433.205 438.187C434.443 439.676 435.076 441.901 435.106 444.864V460.317H428.717V445.018C428.717 443.662 428.422 442.682 427.832 442.078C427.243 441.459 426.263 441.149 424.892 441.149C423.094 441.149 421.746 441.916 420.847 443.449V460.317H414.458V436.396H420.471ZM441.716 460.317V441.083H438.157V436.396H441.716V434.363C441.716 431.68 442.482 429.602 444.015 428.128C445.563 426.64 447.722 425.895 450.493 425.895C451.377 425.895 452.46 426.043 453.742 426.338L453.676 431.29C453.145 431.157 452.497 431.091 451.731 431.091C449.328 431.091 448.127 432.218 448.127 434.473V436.396H452.88V441.083H448.127V460.317H441.716ZM455.201 448.135C455.201 445.763 455.658 443.648 456.572 441.791C457.486 439.934 458.798 438.497 460.507 437.48C462.232 436.463 464.229 435.954 466.498 435.954C469.726 435.954 472.357 436.942 474.391 438.917C476.439 440.892 477.581 443.574 477.817 446.964L477.861 448.6C477.861 452.269 476.837 455.217 474.788 457.443C472.74 459.653 469.991 460.759 466.542 460.759C463.094 460.759 460.338 459.653 458.274 457.443C456.226 455.232 455.201 452.225 455.201 448.423V448.135ZM461.59 448.6C461.59 450.869 462.018 452.608 462.873 453.817C463.727 455.011 464.951 455.608 466.542 455.608C468.09 455.608 469.299 455.018 470.168 453.839C471.038 452.645 471.472 450.744 471.472 448.135C471.472 445.91 471.038 444.186 470.168 442.962C469.299 441.739 468.075 441.127 466.498 441.127C464.936 441.127 463.727 441.739 462.873 442.962C462.018 444.171 461.59 446.05 461.59 448.6ZM495.238 442.387C494.368 442.27 493.602 442.211 492.939 442.211C490.522 442.211 488.937 443.029 488.186 444.665V460.317H481.797V436.396H487.832L488.009 439.248C489.291 437.052 491.067 435.954 493.337 435.954C494.044 435.954 494.707 436.05 495.326 436.242L495.238 442.387ZM504.324 436.396L504.523 439.071C506.218 436.993 508.51 435.954 511.398 435.954C514.479 435.954 516.594 437.17 517.743 439.602C519.423 437.17 521.818 435.954 524.928 435.954C527.522 435.954 529.453 436.713 530.72 438.231C531.988 439.735 532.621 442.004 532.621 445.04V460.317H526.21V445.062C526.21 443.707 525.945 442.719 525.414 442.1C524.884 441.466 523.948 441.149 522.607 441.149C520.691 441.149 519.364 442.063 518.627 443.891L518.649 460.317H512.26V445.085C512.26 443.699 511.988 442.697 511.442 442.078C510.897 441.459 509.969 441.149 508.657 441.149C506.844 441.149 505.532 441.901 504.722 443.404V460.317H498.333V436.396H504.324ZM551.413 460.317C551.118 459.742 550.904 459.027 550.771 458.172C549.224 459.897 547.212 460.759 544.736 460.759C542.393 460.759 540.447 460.081 538.9 458.725C537.367 457.369 536.601 455.659 536.601 453.596C536.601 451.061 537.537 449.115 539.408 447.76C541.295 446.404 544.014 445.718 547.566 445.704H550.506V444.333C550.506 443.228 550.219 442.343 549.644 441.68C549.084 441.017 548.192 440.685 546.969 440.685C545.893 440.685 545.046 440.943 544.427 441.459C543.822 441.975 543.52 442.682 543.52 443.581H537.131C537.131 442.196 537.559 440.914 538.413 439.735C539.268 438.556 540.477 437.634 542.039 436.971C543.601 436.293 545.355 435.954 547.301 435.954C550.248 435.954 552.584 436.699 554.309 438.187C556.048 439.661 556.917 441.739 556.917 444.421V454.79C556.932 457.059 557.249 458.776 557.868 459.941V460.317H551.413ZM546.129 455.873C547.072 455.873 547.942 455.667 548.738 455.254C549.533 454.827 550.123 454.259 550.506 453.552V449.44H548.119C544.92 449.44 543.218 450.545 543.012 452.756L542.99 453.132C542.99 453.928 543.27 454.583 543.83 455.099C544.39 455.615 545.156 455.873 546.129 455.873ZM574.78 453.706C574.78 452.925 574.389 452.314 573.608 451.872C572.842 451.415 571.604 451.009 569.894 450.656C564.205 449.462 561.361 447.045 561.361 443.404C561.361 441.282 562.238 439.514 563.992 438.099C565.76 436.669 568.067 435.954 570.911 435.954C573.947 435.954 576.372 436.669 578.185 438.099C580.012 439.528 580.926 441.385 580.926 443.67H574.537C574.537 442.756 574.242 442.004 573.653 441.415C573.063 440.811 572.142 440.508 570.889 440.508C569.813 440.508 568.981 440.752 568.391 441.238C567.801 441.724 567.507 442.343 567.507 443.095C567.507 443.802 567.838 444.377 568.502 444.819C569.18 445.247 570.314 445.623 571.906 445.947C573.498 446.256 574.839 446.61 575.93 447.008C579.305 448.246 580.992 450.39 580.992 453.441C580.992 455.622 580.056 457.391 578.185 458.747C576.313 460.088 573.896 460.759 570.933 460.759C568.929 460.759 567.146 460.405 565.583 459.698C564.036 458.975 562.82 457.995 561.936 456.757C561.051 455.505 560.609 454.156 560.609 452.712H566.667C566.726 453.846 567.146 454.716 567.927 455.32C568.708 455.925 569.754 456.227 571.066 456.227C572.289 456.227 573.21 455.998 573.829 455.541C574.463 455.07 574.78 454.458 574.78 453.706ZM591.869 460.317H585.458V436.396H591.869V460.317ZM585.082 430.206C585.082 429.248 585.399 428.46 586.033 427.841C586.681 427.222 587.558 426.912 588.664 426.912C589.754 426.912 590.624 427.222 591.272 427.841C591.921 428.46 592.245 429.248 592.245 430.206C592.245 431.179 591.913 431.975 591.25 432.594C590.602 433.213 589.739 433.522 588.664 433.522C587.588 433.522 586.718 433.213 586.055 432.594C585.406 431.975 585.082 431.179 585.082 430.206ZM338.939 506.684H327.31L325.1 513.317H318.047L330.03 481.128H336.175L348.224 513.317H341.172L338.939 506.684ZM329.101 501.312H337.148L333.102 489.264L329.101 501.312ZM359.499 503.722L357.199 506.021V513.317H350.81V479.36H357.199V498.173L358.437 496.581L364.561 489.396H372.232L363.589 499.367L372.984 513.317H365.644L359.499 503.722ZM388.857 513.317C388.562 512.742 388.349 512.027 388.216 511.172C386.669 512.897 384.657 513.759 382.181 513.759C379.837 513.759 377.892 513.081 376.344 511.725C374.812 510.369 374.045 508.659 374.045 506.596C374.045 504.061 374.981 502.115 376.853 500.76C378.739 499.404 381.459 498.718 385.011 498.704H387.951V497.333C387.951 496.228 387.663 495.343 387.089 494.68C386.529 494.017 385.637 493.685 384.414 493.685C383.338 493.685 382.49 493.943 381.871 494.459C381.267 494.975 380.965 495.682 380.965 496.581H374.576C374.576 495.196 375.003 493.914 375.858 492.735C376.713 491.556 377.921 490.634 379.484 489.971C381.046 489.293 382.8 488.954 384.745 488.954C387.693 488.954 390.029 489.699 391.753 491.187C393.492 492.661 394.362 494.739 394.362 497.421V507.79C394.377 510.059 394.694 511.776 395.313 512.941V513.317H388.857ZM383.574 508.873C384.517 508.873 385.386 508.667 386.182 508.254C386.978 507.827 387.568 507.259 387.951 506.552V502.44H385.563C382.365 502.44 380.663 503.545 380.456 505.756L380.434 506.132C380.434 506.928 380.714 507.583 381.274 508.099C381.834 508.615 382.601 508.873 383.574 508.873ZM398.275 501.18C398.275 497.451 399.108 494.481 400.773 492.27C402.453 490.06 404.745 488.954 407.648 488.954C409.977 488.954 411.9 489.824 413.418 491.563V479.36H419.83V513.317H414.06L413.75 510.774C412.158 512.764 410.11 513.759 407.604 513.759C404.789 513.759 402.527 512.653 400.817 510.443C399.122 508.217 398.275 505.129 398.275 501.18ZM404.664 501.644C404.664 503.884 405.055 505.601 405.836 506.795C406.617 507.989 407.752 508.586 409.24 508.586C411.215 508.586 412.608 507.753 413.418 506.087V496.648C412.623 494.982 411.245 494.149 409.284 494.149C406.204 494.149 404.664 496.648 404.664 501.644ZM435.791 513.759C432.283 513.759 429.424 512.683 427.213 510.531C425.017 508.379 423.919 505.513 423.919 501.931V501.312C423.919 498.91 424.384 496.766 425.312 494.879C426.241 492.978 427.552 491.519 429.247 490.502C430.957 489.47 432.902 488.954 435.084 488.954C438.356 488.954 440.927 489.986 442.799 492.049C444.686 494.113 445.629 497.038 445.629 500.826V503.435H430.397C430.603 504.997 431.222 506.25 432.254 507.193C433.3 508.136 434.619 508.608 436.211 508.608C438.672 508.608 440.596 507.716 441.981 505.933L445.12 509.448C444.162 510.804 442.865 511.865 441.23 512.631C439.594 513.383 437.781 513.759 435.791 513.759ZM435.062 494.127C433.794 494.127 432.762 494.555 431.967 495.41C431.185 496.264 430.684 497.488 430.463 499.079H439.35V498.571C439.321 497.156 438.938 496.065 438.201 495.299C437.464 494.518 436.418 494.127 435.062 494.127ZM455.268 489.396L455.467 492.071C457.162 489.993 459.453 488.954 462.342 488.954C465.422 488.954 467.537 490.17 468.687 492.602C470.367 490.17 472.762 488.954 475.872 488.954C478.466 488.954 480.396 489.713 481.664 491.231C482.931 492.735 483.565 495.004 483.565 498.04V513.317H477.154V498.062C477.154 496.707 476.889 495.719 476.358 495.1C475.828 494.466 474.892 494.149 473.55 494.149C471.635 494.149 470.308 495.063 469.571 496.891L469.593 513.317H463.204V498.085C463.204 496.699 462.932 495.697 462.386 495.078C461.841 494.459 460.912 494.149 459.601 494.149C457.788 494.149 456.476 494.901 455.666 496.404V513.317H449.277V489.396H455.268ZM495.238 513.317H488.827V489.396H495.238V513.317ZM488.451 483.206C488.451 482.248 488.768 481.46 489.401 480.841C490.05 480.222 490.927 479.912 492.032 479.912C493.123 479.912 493.992 480.222 494.641 480.841C495.289 481.46 495.614 482.248 495.614 483.206C495.614 484.179 495.282 484.975 494.619 485.594C493.97 486.213 493.108 486.522 492.032 486.522C490.956 486.522 490.087 486.213 489.424 485.594C488.775 484.975 488.451 484.179 488.451 483.206ZM509.21 503.722L506.91 506.021V513.317H500.521V479.36H506.91V498.173L508.148 496.581L514.272 489.396H521.943L513.3 499.367L522.695 513.317H515.355L509.21 503.722Z" fill="#1E73BE"/>
<defs>
<linearGradient id="paint0_linear" x1="319.978" y1="397.208" x2="319.978" y2="327.834" gradientUnits="userSpaceOnUse">
<stop stop-color="#FF4FED"/>
<stop offset="0.3614" stop-color="#EE32D8"/>
<stop offset="0.7616" stop-color="#DF18C6"/>
<stop offset="1" stop-color="#D90EBF"/>
</linearGradient>
</defs>
</svg>
